<?xml version="1.0" standalone="no"?>
<!DOCTYPE svg PUBLIC "-//W3C//DTD SVG 20010904//EN"
 "http://www.w3.org/TR/2001/REC-SVG-20010904/DTD/svg10.dtd">
<svg version="1.0" xmlns="http://www.w3.org/2000/svg"
 width="344.000000pt" height="344.000000pt" viewBox="0 0 344.000000 344.000000"
 preserveAspectRatio="xMidYMid meet">
<metadata>
Created by potrace 1.14, written by Peter Selinger 2001-2017
</metadata>
<g transform="translate(0.000000,344.000000) scale(0.100000,-0.100000)"
fill="#000000" stroke="none">
<path d="M1884 3371 c6 -8 -9 -24 -178 -190 -53 -52 -96 -98 -96 -103 0 -4 -7
-8 -15 -8 -8 0 -15 -5 -15 -11 0 -5 -4 -7 -10 -4 -5 3 -10 0 -10 -8 0 -16 -41
-57 -58 -57 -7 0 -12 -7 -12 -15 0 -8 -17 -29 -37 -47 -20 -18 -43 -41 -52
-51 -40 -47 -61 -67 -67 -67 -4 0 -15 -10 -26 -22 -11 -13 -158 -162 -326
-333 -217 -219 -319 -329 -347 -375 -21 -36 -45 -71 -53 -79 -15 -16 -53 -95
-73 -156 -7 -22 -19 -49 -26 -60 -7 -11 -13 -31 -13 -45 0 -14 -4 -30 -9 -36
-6 -5 -19 -63 -30 -130 -22 -130 -27 -316 -11 -394 6 -25 15 -72 20 -105 6
-33 14 -69 19 -80 4 -11 19 -53 32 -93 13 -41 27 -76 31 -79 5 -2 8 -13 8 -24
0 -10 5 -19 10 -19 6 0 10 -7 10 -15 0 -8 8 -15 18 -15 15 0 17 13 18 127 0
81 5 147 15 178 15 55 75 164 111 207 13 14 32 39 43 54 34 46 62 74 68 67 4
-3 7 0 7 7 0 7 206 218 458 469 429 429 522 524 522 535 0 2 20 35 45 73 25
37 51 83 57 101 7 17 15 32 19 32 4 0 10 19 14 43 4 23 11 47 16 52 31 40 44
328 22 490 -15 109 -59 195 -99 195 -3 0 -3 -4 0 -9z"/>
<path d="M2208 2404 c-10 -21 -9 -35 5 -74 9 -26 17 -54 17 -63 0 -8 12 -36
28 -61 15 -26 32 -56 38 -66 20 -37 110 -99 174 -120 84 -28 117 -46 130 -69
14 -26 13 -64 -2 -79 -17 -17 -70 -15 -94 3 -10 8 -31 15 -46 15 -58 0 -20
-70 69 -129 39 -26 56 -31 107 -31 86 0 111 -15 111 -65 0 -38 -2 -41 -37 -49
-26 -7 -49 -5 -77 4 -87 28 -281 -25 -330 -90 -11 -16 -17 -31 -13 -34 5 -3
40 -8 78 -12 49 -4 81 -14 109 -32 85 -54 107 -100 94 -196 -8 -60 -34 -96
-70 -96 -25 0 -89 58 -89 80 0 52 -36 70 -45 23 -3 -16 -10 -48 -16 -73 -6
-25 -14 -102 -17 -172 -4 -101 -1 -137 12 -177 9 -27 16 -56 16 -64 0 -19 51
-131 62 -135 4 -2 8 -11 8 -21 0 -20 19 -47 83 -114 26 -28 46 -51 45 -52 -17
-10 -111 -45 -122 -45 -9 0 -16 -4 -16 -9 0 -5 -51 -14 -114 -21 -124 -14
-270 -2 -324 26 -15 8 -33 14 -40 14 -34 0 -181 99 -252 170 -60 60 -130 157
-130 180 0 6 -4 10 -9 10 -5 0 -12 13 -16 30 -4 16 -11 32 -16 35 -5 4 -9 17
-9 30 0 13 -4 27 -10 30 -32 20 -3 57 206 265 119 118 224 231 235 250 23 42
42 73 49 80 4 5 12 18 47 85 13 26 30 73 56 160 17 57 21 98 21 225 0 95 -4
169 -11 190 -7 19 -14 48 -17 63 -5 29 -43 97 -55 97 -3 0 -99 -93 -211 -206
-113 -113 -213 -214 -223 -223 -56 -50 -590 -588 -635 -639 -66 -76 -90 -111
-126 -187 -74 -154 -91 -238 -81 -392 9 -144 57 -243 167 -350 48 -47 184
-128 232 -139 17 -4 40 -13 51 -20 11 -8 29 -14 40 -14 12 0 25 -4 30 -9 18
-16 146 -46 265 -62 128 -18 436 3 475 31 6 4 29 11 52 15 24 4 45 11 49 16 3
5 15 9 27 9 12 0 33 6 47 13 14 8 59 32 102 54 108 57 199 125 298 220 46 46
88 83 92 83 3 0 10 10 14 23 4 12 9 24 13 27 17 14 121 181 142 230 7 14 19
43 29 65 18 41 37 104 64 210 27 107 34 317 15 464 -9 74 -13 91 -43 187 -9
29 -16 57 -16 64 0 21 -78 188 -98 209 -7 7 -33 43 -57 80 -81 121 -107 141
-181 141 -19 0 -51 9 -71 20 -21 11 -44 20 -51 20 -18 0 -122 68 -122 80 0 5
-7 10 -15 10 -9 0 -20 12 -26 27 -9 25 -36 52 -52 53 -4 0 -13 -12 -19 -26z"/>
</g>
</svg>
