<svg xmlns="http://www.w3.org/2000/svg" viewBox="0 0 261.38 54.97"><defs><style>.cls-1{fill:#1d2088;}</style></defs><title>アセット 14</title><g id="レイヤー_2" data-name="レイヤー 2"><g id="レイヤー_1-2" data-name="レイヤー 1"><path class="cls-1" d="M8.6,24.67A5.55,5.55,0,0,0,10,23.16a11,11,0,0,0,1.06-2,.77.77,0,0,1,.35-.44.72.72,0,0,1,.51-.07.63.63,0,0,1,.41.26.74.74,0,0,1,.08.55c-.06.26-.12.51-.2.74s-.16.45-.25.68h2.38V20.16a.65.65,0,0,1,.19-.51.63.63,0,0,1,.45-.17.74.74,0,0,1,.48.17.6.6,0,0,1,.22.51V22.9h4a.47.47,0,0,1,.45.33A2.13,2.13,0,0,1,20,24.89c-.14.25-.29.37-.48.37H15.7v2.5h5.18a.55.55,0,0,1,.49.38,2.09,2.09,0,0,1,.19.92,2.27,2.27,0,0,1-.19.94c-.12.28-.28.41-.49.41H16a12.08,12.08,0,0,0,2.68,2.32A20.23,20.23,0,0,0,22,34.35c.18.05.27.25.3.59a3.9,3.9,0,0,1-.09,1.12,2.53,2.53,0,0,1-.41,1c-.19.26-.37.35-.54.27a11.57,11.57,0,0,1-3.09-2.2A15.8,15.8,0,0,1,15.7,32v6.49a.62.62,0,0,1-.22.49.72.72,0,0,1-.48.18.61.61,0,0,1-.45-.18.67.67,0,0,1-.19-.49V32.06A18.13,18.13,0,0,1,11.74,35a14.83,14.83,0,0,1-3,2.21c-.19.09-.38,0-.57-.24a2.53,2.53,0,0,1-.41-1,3.52,3.52,0,0,1-.07-1.12c0-.34.16-.55.37-.62a29.56,29.56,0,0,0,3.53-1.77A11.26,11.26,0,0,0,14,30.41H9.32A.55.55,0,0,1,8.81,30a2.43,2.43,0,0,1-.17-.94,2.24,2.24,0,0,1,.17-.92.54.54,0,0,1,.51-.38h5v-2.5H11.1c-.23.41-.42.76-.58,1a8.88,8.88,0,0,1-.58.87c-.15.19-.39.17-.71,0a2.32,2.32,0,0,1-.76-.89,1.6,1.6,0,0,1-.2.17.4.4,0,0,1-.23.08H6.25v1A20.3,20.3,0,0,0,7.75,29l.73.67a.8.8,0,0,1,.18.63,1.84,1.84,0,0,1-.22.82,1.57,1.57,0,0,1-.5.58.35.35,0,0,1-.48,0l-.4-.35c-.24-.22-.52-.48-.82-.78v7.9a.63.63,0,0,1-.22.5.73.73,0,0,1-.48.18.68.68,0,0,1-.47-.18.66.66,0,0,1-.2-.5v-8A10.22,10.22,0,0,1,3.63,32.6a9.79,9.79,0,0,1-1.46,1.57c-.19.13-.37.08-.54-.16a2.7,2.7,0,0,1-.39-1,4.54,4.54,0,0,1-.13-1.15c0-.36.09-.59.24-.68A17.85,17.85,0,0,0,3.59,29.4a5.8,5.8,0,0,0,1.3-1.85V26.47H2.29a.55.55,0,0,1-.51-.41,2.36,2.36,0,0,1-.17-.93,2.18,2.18,0,0,1,.17-.9.55.55,0,0,1,.51-.38h2.6V20.17a.64.64,0,0,1,.2-.51.71.71,0,0,1,.47-.17.77.77,0,0,1,.48.17.61.61,0,0,1,.22.51v3.68H8a.48.48,0,0,1,.4.24A1,1,0,0,1,8.6,24.67Z"/><path class="cls-1" d="M43.56,35.29c.17.09.24.34.21.73a4.62,4.62,0,0,1-.29,1.29,4,4,0,0,1-.58,1.11c-.22.27-.4.36-.55.27a12.28,12.28,0,0,1-4.44-5.14,26.14,26.14,0,0,1-2-7.35H25.27a.55.55,0,0,1-.51-.41,2.52,2.52,0,0,1-.17-1,2.4,2.4,0,0,1,.17-1,.55.55,0,0,1,.51-.4H35.54c-.08-.71-.13-1.29-.18-1.72s-.06-1-.08-1.59a.66.66,0,0,1,.67-.71.74.74,0,0,1,.48.17.6.6,0,0,1,.21.51c0,.76,0,1.34.07,1.76s.09.94.18,1.58h5.47c.2,0,.37.14.49.4a2.27,2.27,0,0,1,.18,1,2.38,2.38,0,0,1-.18,1c-.12.27-.29.41-.49.41H37.21a12.18,12.18,0,0,0,2,5.22A16,16,0,0,0,43.56,35.29Zm-7.48,1.5L26,37.95a.57.57,0,0,1-.56-.35,2.17,2.17,0,0,1-.24-.94,2.42,2.42,0,0,1,.13-1,.58.58,0,0,1,.5-.45l4.3-.54V31H26.42a.55.55,0,0,1-.51-.38,2.27,2.27,0,0,1-.17-.9,2.14,2.14,0,0,1,.17-.88.55.55,0,0,1,.51-.37H35.2a.56.56,0,0,1,.5.37,1.92,1.92,0,0,1,.18.88,2,2,0,0,1-.18.9.56.56,0,0,1-.5.38H31.47v3.57l4.44-.51c.2,0,.38.07.51.32a2.3,2.3,0,0,1,.23.94,2.75,2.75,0,0,1-.11,1C36.44,36.59,36.29,36.75,36.08,36.79Zm5.55-15.86-1.16,2a.64.64,0,0,1-.44.3.8.8,0,0,1-.51-.08.65.65,0,0,1-.33-.38.55.55,0,0,1,.09-.51l1.19-2a.59.59,0,0,1,.4-.34.68.68,0,0,1,.5.07.63.63,0,0,1,.32.39A.7.7,0,0,1,41.63,20.92Z"/><path class="cls-1" d="M66.58,24.65c.17,0,.26.24.28.59a3.86,3.86,0,0,1-.17,1.25,4.34,4.34,0,0,1-.48,1.16c-.19.31-.37.43-.54.37a18,18,0,0,1-4.42-2.79,24.27,24.27,0,0,1-3.73-3.53,1,1,0,0,0-.72-.46.93.93,0,0,0-.72.46,25,25,0,0,1-3.56,3.45,16.41,16.41,0,0,1-4.4,2.75c-.23.08-.45,0-.68-.34a3.44,3.44,0,0,1-.54-1.15,3.56,3.56,0,0,1-.15-1.26c0-.38.15-.59.38-.62a22,22,0,0,0,4.33-1.65A21.8,21.8,0,0,0,55,20.75,2.8,2.8,0,0,1,56.86,20a3,3,0,0,1,1.88.83A18.51,18.51,0,0,0,62.21,23,19,19,0,0,0,66.58,24.65Z"/><path class="cls-1" d="M61.77,28.47H52a.55.55,0,0,1-.51-.4,2.27,2.27,0,0,1-.17-.92,2.18,2.18,0,0,1,.17-.91.55.55,0,0,1,.51-.38h9.8a.56.56,0,0,1,.49.38,2.11,2.11,0,0,1,.18.91,2.21,2.21,0,0,1-.18.92C62.14,28.34,62,28.47,61.77,28.47Z"/><path class="cls-1" d="M65.92,30.73c-.12-.26-.28-.39-.49-.39H48.32a.54.54,0,0,0-.51.39,2.4,2.4,0,0,0-.17,1,2.61,2.61,0,0,0,.17,1c.11.28.28.43.51.43h5.1a10,10,0,0,0-1,1c-.29.34-.64.79-1,1.33a2.13,2.13,0,0,0-.51,1.74,1.61,1.61,0,0,0,1.25,1.32,32.09,32.09,0,0,0,9.32,0c.17.23.31.47.5.68s.34.13.63,0a2.58,2.58,0,0,0,.81-.78,4,4,0,0,0,.54-1c.12-.34.1-.57,0-.7a20.89,20.89,0,0,1-2.54-2.93c-.12-.17-.22-.38-.33-.56h4.44c.21,0,.37-.14.49-.43a2.46,2.46,0,0,0,.18-1A2.27,2.27,0,0,0,65.92,30.73Zm-6.06,5c.07.17.18.32.25.48-1.63.05-5.32.06-6-.07s-1.1-.45-1-.7a3.73,3.73,0,0,1,.72-1.11,9,9,0,0,1,1.34-1.27H59A17.08,17.08,0,0,0,59.85,35.77Z"/><path class="cls-1" d="M75.26,32v6.65a.62.62,0,0,1-.21.5.72.72,0,0,1-.48.18.65.65,0,0,1-.47-.18.64.64,0,0,1-.2-.5V30.5a14.5,14.5,0,0,1-1.43,1.62A16.9,16.9,0,0,1,71,33.45a.45.45,0,0,1-.64-.1,2.22,2.22,0,0,1-.46-.95,3.79,3.79,0,0,1-.11-1.15c0-.35.14-.56.33-.64a16.54,16.54,0,0,0,3-1.94,14.59,14.59,0,0,0,2.43-2.36H71.15c-.23,0-.4-.14-.51-.43a2.65,2.65,0,0,1-.17-1,2.44,2.44,0,0,1,.17-.95.55.55,0,0,1,.51-.39h5a1.36,1.36,0,0,1,1.34.69,1.69,1.69,0,0,1-.15,1.63c-.38.61-.73,1.14-1.05,1.6a15.07,15.07,0,0,1-1.07,1.37v.31l2.83,1.7a.66.66,0,0,1,.3.57,2.21,2.21,0,0,1-.11.91,1.77,1.77,0,0,1-.43.73.42.42,0,0,1-.52.11Zm1-11.07a.6.6,0,0,1,.23.55,2,2,0,0,1-.2.85,2,2,0,0,1-.5.69.52.52,0,0,1-.55.14l-1.43-.67q-.75-.35-1.37-.58a.66.66,0,0,1-.37-.56,1.86,1.86,0,0,1,.13-.9,1.83,1.83,0,0,1,.5-.75.59.59,0,0,1,.65-.13q.85.32,1.57.64A10.63,10.63,0,0,1,76.28,20.9Zm5.86,7.67H78.07c-.23,0-.39-.15-.51-.43a2.79,2.79,0,0,1-.17-1,2.55,2.55,0,0,1,.17-1,.55.55,0,0,1,.51-.39h4.08V21.09a.63.63,0,0,1,.2-.51.7.7,0,0,1,.47-.17.75.75,0,0,1,.48.17.61.61,0,0,1,.21.51v4.67h4.62c.2,0,.37.13.49.39a2.31,2.31,0,0,1,.18,1,2.53,2.53,0,0,1-.18,1c-.12.28-.29.43-.49.43H83.51v6.91H89c.2,0,.37.13.49.4a2.28,2.28,0,0,1,.19,1,2.51,2.51,0,0,1-.19,1c-.12.28-.29.42-.49.42H76.77c-.23,0-.4-.14-.51-.42a2.76,2.76,0,0,1-.17-1,2.5,2.5,0,0,1,.17-1,.55.55,0,0,1,.51-.4h5.38Z"/><path class="cls-1" d="M238.89,38.46l-3.44-22,8.16-.28c0,.83,0,1.69,0,2.56,0,3.06-1,4.69-3.59,6-1.64.85-1.94,2.4-.26,3a16.58,16.58,0,0,0,3.7.19c8.73,0,9.86-7,10-7.78,0,0,.74-3.37,1.34-14H233.85l-1-6.21H221.66l.55,6.21h-9l1,10.94,8.91-.3,1.91,21.61Z"/><path class="cls-1" d="M187.27,38.46l-1.33-8.52,4.78-.12c3.72-.16,5.58-2.29,7.14-6.64,1-2.73-.95-5.46-6.7-2.71h-6.68l-.87-5.55,5.7-.11c4.82-.15,6.46-2.19,7.92-7.23.8-2.77-3.13-4.35-6.84-1.84h-8.2L181.26,0H170l.5,5.73H158.72l.85,9.68,11.82-.24.47,5.31H159.8l.85,10.09,12.08-.3.73,8.2Z"/><path class="cls-1" d="M135.23,28.79H105.36l.37,10,24.95-.34H134c4.88,0,7.67-3.27,8.7-9.1C143.35,25.69,138.51,24.14,135.23,28.79Z"/><path class="cls-1" d="M134.81,3H105.36l.45,9.59L133,12.11c6,0,7.87-2,8.38-8.07C141.57,1.26,137.1.15,134.81,3Z"/><path class="cls-1" d="M135.15,16H105.36l.26,9.22L129.74,25H133a7.89,7.89,0,0,0,6.6-3.08A11.37,11.37,0,0,0,141.33,17C141.79,14.32,137.34,13.68,135.15,16Z"/><path class="cls-1" d="M2.9,49.88l1.2-3.32q.3-.85,1.1-3.25h.31q.3,1.08.82,2.72L7.58,50l.94-3.68q.13-.53.46-2A1,1,0,0,0,9,44a.18.18,0,0,0-.08-.16,1.05,1.05,0,0,0-.38-.09l-.47,0v-.37l1.13,0q.44,0,1.09,0v.37H10a.34.34,0,0,0-.26.09A13.94,13.94,0,0,0,9,46.28q-.82,3-1.35,5.46H7.12Q7,51.35,7,51.16q-.23-.75-1.05-3.3l-.85-2.61-1,2.63q-.86,2.36-1.28,3.86H2.31L2,50.31q-.11-.63-.26-1.35l-.9-4.35a2.2,2.2,0,0,0-.23-.75.57.57,0,0,0-.43-.12H0v-.37q.74,0,1.27,0l1.4,0v.37H2.35a1,1,0,0,0-.46.07.25.25,0,0,0-.11.23,1,1,0,0,0,0,.22l.35,1.93Z"/><path class="cls-1" d="M11.7,48.84a2.76,2.76,0,0,0,.52,1.74,1.6,1.6,0,0,0,1.29.59,2,2,0,0,0,.71-.13,2.76,2.76,0,0,0,.7-.4l.09.09-.16.49a3.48,3.48,0,0,1-.88.42,3.14,3.14,0,0,1-.93.14A2.11,2.11,0,0,1,11.35,51a3,3,0,0,1-.64-2,3.72,3.72,0,0,1,.36-1.69,2.31,2.31,0,0,1,.87-.87,2.33,2.33,0,0,1,1.24-.4,1.83,1.83,0,0,1,1.44.6,2.47,2.47,0,0,1,.53,1.69v.34a3.76,3.76,0,0,1-.65.12q-.55,0-1.52,0Zm0-.44q.8,0,1.76,0a6.67,6.67,0,0,0,.75,0v-.32a2.64,2.64,0,0,0-.18-1,1,1,0,0,0-.4-.47,1.15,1.15,0,0,0-.65-.19,1.08,1.08,0,0,0-.92.48A2.6,2.6,0,0,0,11.71,48.4Z"/><path class="cls-1" d="M20.78,51.7h-.52q-.43-1.68-1-3.66l-.33-1.17a.62.62,0,0,0-.2-.29.48.48,0,0,0-.3-.1h-.26v-.34l1.26,0,1.26,0v.34h-.28a.83.83,0,0,0-.44.08.2.2,0,0,0-.09.19q0,.28.88,3.6l1.11-2.74q.25-.64.58-1.56h.26q.22.71.46,1.36l1.06,3L25,48.07A9.66,9.66,0,0,0,25.32,47a1.41,1.41,0,0,0,0-.23.26.26,0,0,0-.11-.21.53.53,0,0,0-.33-.08h-.34v-.34q.67,0,1.19,0t.87,0v.34h-.23a.44.44,0,0,0-.34.21,16.63,16.63,0,0,0-.88,2.13q-.61,1.61-.95,2.88h-.5Q23.51,51,23,49.49l-.65-1.87q-.72,1.72-1.17,2.9Q21,51.06,20.78,51.7Z"/><path class="cls-1" d="M28.83,46l.12.09q0,.44,0,1,0,1.7,0,2.5t0,1.29a.5.5,0,0,0,.1.29.69.69,0,0,0,.37.12l.35.05v.34q-.75,0-1.37,0t-1.22,0v-.34l.44-.05c.17,0,.28-.05.32-.11a1.51,1.51,0,0,0,.07-.56q0-.74,0-2,0-.9,0-1.39a.37.37,0,0,0-.09-.26.56.56,0,0,0-.36-.08h-.39v-.34a8.56,8.56,0,0,0,.92-.19A6.37,6.37,0,0,0,28.83,46Zm-.41-2.57a.52.52,0,0,1,.41.19.69.69,0,0,1,.17.47.68.68,0,0,1-.17.46.52.52,0,0,1-.41.19.53.53,0,0,1-.41-.19.68.68,0,0,1-.17-.46.69.69,0,0,1,.17-.47A.53.53,0,0,1,28.42,43.43Z"/><path class="cls-1" d="M32,43q-.09,1.7-.09,3.08v3a14.81,14.81,0,0,0,.07,2c0,.08.14.13.34.16l.44.05v.34q-.56,0-1.07,0t-1.48,0v-.34l.44,0q.29,0,.33-.17A15.24,15.24,0,0,0,31,49V45l0-.76a.64.64,0,0,0-.06-.35.46.46,0,0,0-.34-.09H30.2V43.4a4.68,4.68,0,0,0,1.71-.45Z"/><path class="cls-1" d="M35.06,43Q35,44.72,35,46.1v3a14.81,14.81,0,0,0,.07,2c0,.08.14.13.34.16l.44.05v.34q-.56,0-1.07,0t-1.48,0v-.34l.44,0q.29,0,.33-.17A15.24,15.24,0,0,0,34.1,49V45l0-.76a.64.64,0,0,0-.06-.35.46.46,0,0,0-.34-.09h-.42V43.4A4.68,4.68,0,0,0,35,42.95Z"/><path class="cls-1" d="M42.87,50.82,43,51l-.21.37a2.91,2.91,0,0,1-.72.32,2.7,2.7,0,0,1-.76.11A2.4,2.4,0,0,1,40,51.44a2.13,2.13,0,0,1-.82-.94A3.43,3.43,0,0,1,38.94,49a3.51,3.51,0,0,1,.22-1.3,2,2,0,0,1,.62-.87,6,6,0,0,1,1-.62,2,2,0,0,1,.94-.22,2.79,2.79,0,0,1,.68.07,2.52,2.52,0,0,1,.61.26,10.11,10.11,0,0,0-.14,1.54h-.32v-.29a1.06,1.06,0,0,0-.09-.53,1,1,0,0,0-.43-.31,1.8,1.8,0,0,0-.74-.15,1.28,1.28,0,0,0-1.07.48,2.29,2.29,0,0,0-.38,1.43,3.18,3.18,0,0,0,.56,2,1.54,1.54,0,0,0,1.29.67,2.15,2.15,0,0,0,.61-.09A2.77,2.77,0,0,0,42.87,50.82Z"/><path class="cls-1" d="M43.75,48.86a3.16,3.16,0,0,1,.33-1.45,2.49,2.49,0,0,1,.92-1A2.52,2.52,0,0,1,46.35,46a2.24,2.24,0,0,1,1.75.73,2.81,2.81,0,0,1,.66,2A3.07,3.07,0,0,1,47.91,51a2.51,2.51,0,0,1-1.84.76A2.07,2.07,0,0,1,44.4,51,3.24,3.24,0,0,1,43.75,48.86Zm1-.41a4.47,4.47,0,0,0,.43,2.05,1.36,1.36,0,0,0,1.25.85,1.18,1.18,0,0,0,1-.53,2.8,2.8,0,0,0,.38-1.62,4.59,4.59,0,0,0-.23-1.52,2,2,0,0,0-.6-.94,1.3,1.3,0,0,0-.83-.29,1.23,1.23,0,0,0-.73.23,1.36,1.36,0,0,0-.48.62A3.08,3.08,0,0,0,44.72,48.45Z"/><path class="cls-1" d="M51,47.14l.78-.78a.92.92,0,0,1,.29-.2,1.93,1.93,0,0,1,.68-.13,1.75,1.75,0,0,1,1,.25,1.45,1.45,0,0,1,.58.66,3.38,3.38,0,0,1,.18,1.26l0,1.83a4.22,4.22,0,0,0,.07,1.09.39.39,0,0,0,.38.19h.37v.34q-.55,0-.95,0t-.84,0q.1-1.13.1-3.06a3.51,3.51,0,0,0-.12-1.1A1.08,1.08,0,0,0,53,47a1.18,1.18,0,0,0-.69-.2,1.29,1.29,0,0,0-.85.28,1.17,1.17,0,0,0-.43.63A7.63,7.63,0,0,0,51,48.86q0,1.06,0,2a.39.39,0,0,0,.5.48h.37v.34q-.87,0-1.39,0t-1.24,0v-.34h.37q.38,0,.44-.2a20.4,20.4,0,0,0,.06-2.41q0-1,0-1.55a.38.38,0,0,0-.08-.26.7.7,0,0,0-.41-.07h-.37v-.34a5.61,5.61,0,0,0,.79-.16,5.2,5.2,0,0,0,.78-.3l.09,0q.08,0,.08.13v1Z"/><path class="cls-1" d="M57.17,47.08v2.28a7.52,7.52,0,0,0,.05,1.14.69.69,0,0,0,.21.39.57.57,0,0,0,.4.14.68.68,0,0,0,.29-.07,1.07,1.07,0,0,0,.28-.2l.15.2-.5.66-.32.1a1.37,1.37,0,0,1-.3,0,1.26,1.26,0,0,1-.65-.15.93.93,0,0,1-.38-.4,1.8,1.8,0,0,1-.12-.75l0-1.12V47.13q-.4,0-.82,0v-.25q.44-.19.82-.4,0-.83,0-1.8a7.58,7.58,0,0,0,.86-.46l.13.12q0,.45-.09,2.14l1,0,.41,0-.06.6H57.17Z"/><path class="cls-1" d="M60.64,46l.12.09q0,.44,0,1,0,1.7,0,2.5t0,1.29a.5.5,0,0,0,.1.29.69.69,0,0,0,.37.12l.35.05v.34q-.75,0-1.37,0t-1.22,0v-.34l.44-.05c.17,0,.28-.05.32-.11a1.51,1.51,0,0,0,.07-.56q0-.74,0-2,0-.9,0-1.39a.37.37,0,0,0-.09-.26.56.56,0,0,0-.36-.08H59v-.34a8.56,8.56,0,0,0,.92-.19A6.37,6.37,0,0,0,60.64,46Zm-.41-2.57a.52.52,0,0,1,.41.19.69.69,0,0,1,.17.47.68.68,0,0,1-.17.46.52.52,0,0,1-.41.19.53.53,0,0,1-.41-.19.68.68,0,0,1-.17-.46.69.69,0,0,1,.17-.47A.53.53,0,0,1,60.23,43.43Z"/><path class="cls-1" d="M63.61,47.14l.78-.78a.92.92,0,0,1,.29-.2,1.93,1.93,0,0,1,.68-.13,1.75,1.75,0,0,1,1,.25,1.45,1.45,0,0,1,.58.66,3.38,3.38,0,0,1,.18,1.26L67,50a4.22,4.22,0,0,0,.07,1.09.39.39,0,0,0,.38.19h.37v.34q-.55,0-.95,0t-.84,0q.1-1.13.1-3.06a3.51,3.51,0,0,0-.12-1.1,1.08,1.08,0,0,0-.41-.52,1.18,1.18,0,0,0-.69-.2,1.29,1.29,0,0,0-.85.28,1.17,1.17,0,0,0-.43.63,7.63,7.63,0,0,0-.05,1.19q0,1.06,0,2a.39.39,0,0,0,.5.48h.37v.34q-.87,0-1.39,0t-1.24,0v-.34h.37q.38,0,.44-.2a20.4,20.4,0,0,0,.06-2.41q0-1,0-1.55a.38.38,0,0,0-.08-.26.7.7,0,0,0-.41-.07h-.37v-.34a5.61,5.61,0,0,0,.79-.16,5.2,5.2,0,0,0,.78-.3l.09,0q.08,0,.08.13v1Z"/><path class="cls-1" d="M72.21,51.65l.06-1L72,51a2.18,2.18,0,0,1-.72.61,2.07,2.07,0,0,1-.91.18,1.41,1.41,0,0,1-.8-.22,1.29,1.29,0,0,1-.49-.57,3,3,0,0,1-.15-1.11q0-.4,0-.92l0-.94a5.76,5.76,0,0,0,0-1.09c0-.07-.14-.11-.33-.11H68.1v-.32a5.16,5.16,0,0,0,1.29-.29l.43-.18c.06,0,.09,0,.09.14l0,.59Q69.8,48,69.8,49a7,7,0,0,0,.08,1.35.9.9,0,0,0,.32.49.93.93,0,0,0,.6.19,1.3,1.3,0,0,0,.87-.35,1.72,1.72,0,0,0,.52-.7,6.06,6.06,0,0,0,.07-1.23,13.92,13.92,0,0,0-.06-1.87q-.05-.12-.46-.12h-.41v-.32a8.2,8.2,0,0,0,.9-.16A4.67,4.67,0,0,0,73,46l.09,0c.06,0,.09,0,.09.11l0,.54q-.08,2-.08,3.5a3.07,3.07,0,0,0,.08,1c.08.12.24.18.49.18H74v.34q-.64,0-1.09,0A5.55,5.55,0,0,0,72.21,51.65Z"/><path class="cls-1" d="M75.51,48.84A2.76,2.76,0,0,0,76,50.57a1.6,1.6,0,0,0,1.29.59A2,2,0,0,0,78,51a2.76,2.76,0,0,0,.7-.4l.09.09-.16.49a3.48,3.48,0,0,1-.88.42,3.14,3.14,0,0,1-.93.14A2.11,2.11,0,0,1,75.17,51a3,3,0,0,1-.64-2,3.72,3.72,0,0,1,.36-1.69,2.31,2.31,0,0,1,.87-.87A2.33,2.33,0,0,1,77,46a1.83,1.83,0,0,1,1.44.6A2.47,2.47,0,0,1,79,48.32v.34a3.76,3.76,0,0,1-.65.12q-.55,0-1.52,0Zm0-.44q.8,0,1.76,0a6.67,6.67,0,0,0,.75,0v-.32a2.64,2.64,0,0,0-.18-1,1,1,0,0,0-.4-.47,1.15,1.15,0,0,0-.65-.19,1.08,1.08,0,0,0-.92.48A2.6,2.6,0,0,0,75.52,48.4Z"/><path class="cls-1" d="M83.83,47.08v2.28a7.52,7.52,0,0,0,.05,1.14.69.69,0,0,0,.21.39.57.57,0,0,0,.4.14.68.68,0,0,0,.29-.07,1.07,1.07,0,0,0,.28-.2l.15.2-.5.66-.32.1a1.37,1.37,0,0,1-.3,0,1.26,1.26,0,0,1-.65-.15.93.93,0,0,1-.38-.4,1.8,1.8,0,0,1-.12-.75l0-1.12V47.13q-.4,0-.82,0v-.25q.44-.19.82-.4,0-.83,0-1.8a7.58,7.58,0,0,0,.86-.46l.13.12q0,.45-.09,2.14l1,0,.41,0-.06.6H83.83Z"/><path class="cls-1" d="M85.72,48.86A3.16,3.16,0,0,1,86,47.41a2.49,2.49,0,0,1,.92-1A2.52,2.52,0,0,1,88.32,46a2.24,2.24,0,0,1,1.75.73,2.81,2.81,0,0,1,.66,2A3.07,3.07,0,0,1,89.87,51a2.51,2.51,0,0,1-1.84.76A2.07,2.07,0,0,1,86.36,51,3.24,3.24,0,0,1,85.72,48.86Zm1-.41a4.47,4.47,0,0,0,.43,2.05,1.36,1.36,0,0,0,1.25.85,1.18,1.18,0,0,0,1-.53,2.8,2.8,0,0,0,.38-1.62,4.59,4.59,0,0,0-.23-1.52,2,2,0,0,0-.6-.94,1.3,1.3,0,0,0-.83-.29,1.23,1.23,0,0,0-.73.23,1.36,1.36,0,0,0-.48.62A3.08,3.08,0,0,0,86.69,48.45Z"/><path class="cls-1" d="M95.73,47.2l.72-.72a1.44,1.44,0,0,1,.46-.34,2.08,2.08,0,0,1,.71-.11,1.88,1.88,0,0,1,1.48.64,2.4,2.4,0,0,1,.56,1.65,3.93,3.93,0,0,1-.13,1,3.14,3.14,0,0,1-.31.8,2.24,2.24,0,0,1-.42.52l-.63.46-.21.17a2.85,2.85,0,0,1-.63.4,1.47,1.47,0,0,1-.55.1,1.8,1.8,0,0,1-.51-.08,3.18,3.18,0,0,1-.56-.23v.82q0,1.26,0,1.78a.47.47,0,0,0,.13.33.77.77,0,0,0,.48.1h.28v.32l-1.43,0q-.5,0-1.27,0v-.32h.38q.4,0,.47-.19a13.45,13.45,0,0,0,.07-2V48.68q0-.93,0-1.43a.53.53,0,0,0-.1-.32.58.58,0,0,0-.37-.08h-.4v-.36a6.6,6.6,0,0,0,1.41-.33l.31-.14c.05,0,.08.05.08.16l0,.62Zm0,3.2a2.16,2.16,0,0,0,.66.59,1.49,1.49,0,0,0,.71.17,1.38,1.38,0,0,0,1.24-.69,3,3,0,0,0,.43-1.64,2.74,2.74,0,0,0-.2-1.09A1.62,1.62,0,0,0,98,47a1.42,1.42,0,0,0-.82-.26,1.4,1.4,0,0,0-.6.14,1.61,1.61,0,0,0-.52.39,1.24,1.24,0,0,0-.28.46,4.18,4.18,0,0,0,0,.83Z"/><path class="cls-1" d="M102.11,43q-.09,1.7-.09,3.08v3a14.81,14.81,0,0,0,.07,2c0,.08.14.13.34.16l.44.05v.34q-.56,0-1.07,0t-1.48,0v-.34l.44,0q.29,0,.33-.17a15.24,15.24,0,0,0,.07-2.06V45l0-.76a.64.64,0,0,0-.06-.35.46.46,0,0,0-.34-.09h-.42V43.4a4.68,4.68,0,0,0,1.71-.45Z"/><path class="cls-1" d="M103.86,47.61v-.79l.56-.36a3,3,0,0,1,.67-.34,2,2,0,0,1,.61-.09,1.74,1.74,0,0,1,1.14.36,1.45,1.45,0,0,1,.52.92q.06.42.08,2.07a13.69,13.69,0,0,0,.06,1.72.24.24,0,0,0,.26.16h.4v.38l-.82,0q-.29,0-.77,0v-.52q0-.25,0-.51l-1.06.92a.92.92,0,0,1-.28.17,1.18,1.18,0,0,1-.39,0,1.33,1.33,0,0,1-1-.37,1.38,1.38,0,0,1-.35-1,2,2,0,0,1,.25-1,1.52,1.52,0,0,1,.71-.65,12.72,12.72,0,0,1,2.14-.55,1.87,1.87,0,0,0-.29-1.1,1.18,1.18,0,0,0-1-.46,1.51,1.51,0,0,0-.46.07,1.37,1.37,0,0,0-.4.2q-.15.42-.27.8Zm2.71.92a5.62,5.62,0,0,0-1.82.65,1.13,1.13,0,0,0-.39.94,1,1,0,0,0,.22.69.72.72,0,0,0,.57.26,1.28,1.28,0,0,0,.74-.24,2.66,2.66,0,0,0,.67-.72V48.53Z"/><path class="cls-1" d="M112.56,50.82l.14.14-.21.37a2.91,2.91,0,0,1-.72.32,2.7,2.7,0,0,1-.76.11,2.4,2.4,0,0,1-1.28-.32,2.13,2.13,0,0,1-.82-.94,3.43,3.43,0,0,1-.29-1.46,3.51,3.51,0,0,1,.22-1.3,2,2,0,0,1,.62-.87,6,6,0,0,1,1-.62,2,2,0,0,1,.94-.22,2.79,2.79,0,0,1,.68.07,2.52,2.52,0,0,1,.61.26,10.11,10.11,0,0,0-.14,1.54h-.32v-.29a1.06,1.06,0,0,0-.09-.53,1,1,0,0,0-.43-.31,1.8,1.8,0,0,0-.74-.15,1.28,1.28,0,0,0-1.07.48,2.29,2.29,0,0,0-.38,1.43,3.18,3.18,0,0,0,.56,2,1.54,1.54,0,0,0,1.29.67,2.15,2.15,0,0,0,.61-.09A2.77,2.77,0,0,0,112.56,50.82Z"/><path class="cls-1" d="M114.34,48.84a2.76,2.76,0,0,0,.52,1.74,1.6,1.6,0,0,0,1.29.59,2,2,0,0,0,.71-.13,2.76,2.76,0,0,0,.7-.4l.09.09-.16.49a3.48,3.48,0,0,1-.88.42,3.14,3.14,0,0,1-.93.14A2.11,2.11,0,0,1,114,51a3,3,0,0,1-.64-2,3.72,3.72,0,0,1,.36-1.69,2.31,2.31,0,0,1,.87-.87,2.33,2.33,0,0,1,1.24-.4,1.83,1.83,0,0,1,1.44.6,2.47,2.47,0,0,1,.53,1.69v.34a3.76,3.76,0,0,1-.65.12q-.55,0-1.52,0Zm0-.44q.8,0,1.76,0a6.67,6.67,0,0,0,.75,0v-.32a2.64,2.64,0,0,0-.18-1,1,1,0,0,0-.4-.47,1.15,1.15,0,0,0-.65-.19,1.08,1.08,0,0,0-.92.48A2.6,2.6,0,0,0,114.35,48.4Z"/><path class="cls-1" d="M122.65,47.08v2.28a7.52,7.52,0,0,0,.05,1.14.69.69,0,0,0,.21.39.57.57,0,0,0,.4.14.68.68,0,0,0,.29-.07,1.07,1.07,0,0,0,.28-.2l.15.2-.5.66-.32.1a1.37,1.37,0,0,1-.3,0,1.26,1.26,0,0,1-.65-.15.93.93,0,0,1-.38-.4,1.8,1.8,0,0,1-.12-.75l0-1.12V47.13q-.4,0-.82,0v-.25q.44-.19.82-.4,0-.83,0-1.8a7.58,7.58,0,0,0,.86-.46l.13.12q0,.45-.09,2.14l1,0,.41,0-.06.6h-1.38Z"/><path class="cls-1" d="M126,47.13l.67-.67a1.38,1.38,0,0,1,.47-.34,1.48,1.48,0,0,1,.55-.09,1.85,1.85,0,0,1,1,.26,1.38,1.38,0,0,1,.58.66,4.08,4.08,0,0,1,.16,1.37l0,1.72a8,8,0,0,0,0,.92.34.34,0,0,0,.08.21.53.53,0,0,0,.3.09l.39,0v.34q-.5,0-1,0a8,8,0,0,0-.81,0q.09-1.46.09-2.87a5.11,5.11,0,0,0-.11-1.28,1,1,0,0,0-.38-.53,1.14,1.14,0,0,0-.69-.2,1.38,1.38,0,0,0-.78.23,1.25,1.25,0,0,0-.48.53,3.35,3.35,0,0,0-.09,1v1a9.51,9.51,0,0,0,.06,1.53c0,.1.17.16.41.18l.45,0v.34q-.8,0-1.29,0t-1.33,0v-.34l.32,0a1.05,1.05,0,0,0,.38-.1.36.36,0,0,0,.1-.25q0-.31,0-1.4V45.59a10,10,0,0,0-.07-1.74q0-.13-.42-.13h-.35v-.36a6,6,0,0,0,1.28-.26l.42-.16q.08,0,.08.12l0,.24,0,1q0,.79,0,1.22Z"/><path class="cls-1" d="M131.58,48.84a2.76,2.76,0,0,0,.52,1.74,1.6,1.6,0,0,0,1.29.59,2,2,0,0,0,.71-.13,2.76,2.76,0,0,0,.7-.4l.09.09-.16.49a3.48,3.48,0,0,1-.88.42,3.14,3.14,0,0,1-.93.14,2.11,2.11,0,0,1-1.68-.75,3,3,0,0,1-.64-2A3.72,3.72,0,0,1,131,47.3a2.31,2.31,0,0,1,.87-.87,2.33,2.33,0,0,1,1.24-.4,1.83,1.83,0,0,1,1.44.6,2.47,2.47,0,0,1,.53,1.69v.34a3.76,3.76,0,0,1-.65.12q-.55,0-1.52,0Zm0-.44q.8,0,1.76,0a6.67,6.67,0,0,0,.75,0v-.32a2.64,2.64,0,0,0-.18-1,1,1,0,0,0-.4-.47,1.15,1.15,0,0,0-.65-.19,1.08,1.08,0,0,0-.92.48A2.6,2.6,0,0,0,131.59,48.4Z"/><path class="cls-1" d="M138.92,46.77l-.15-2.6c0-.16,0-.28,0-.38a.66.66,0,0,1,.1-.39.29.29,0,0,1,.49,0,.68.68,0,0,1,.1.4q0,.13,0,.37l-.15,2.6c0,.17-.07.25-.19.25S138.93,46.94,138.92,46.77Zm1.68,0-.15-2.6c0-.16,0-.28,0-.38a.66.66,0,0,1,.1-.39.3.3,0,0,1,.24-.14.3.3,0,0,1,.25.13.66.66,0,0,1,.1.4c0,.09,0,.21,0,.37l-.15,2.6c0,.17-.07.25-.18.25S140.61,46.94,140.6,46.77Z"/><path class="cls-1" d="M144.17,51.08l1,0a15.08,15.08,0,0,0,1.51-.06,4.77,4.77,0,0,0,.79-.17l.31-1.37h.33q-.13,1.1-.2,2.05a7.17,7.17,0,0,1-1.26.09l-2.45,0q-.49,0-1.54.06v-.31a.87.87,0,0,0,.49-.44,11.31,11.31,0,0,0,.07-1.84v-3.2a12,12,0,0,0-.07-1.94c-.05-.13-.19-.2-.42-.2h-.56v-.37l1.62,0,1.45,0v.37h-.64c-.18,0-.3.06-.34.18a7.34,7.34,0,0,0-.07,1.47v3.7l0,1.64Z"/><path class="cls-1" d="M150.27,46l.12.09q0,.44,0,1,0,1.7,0,2.5t0,1.29a.49.49,0,0,0,.1.29.69.69,0,0,0,.37.12l.35.05v.34q-.75,0-1.37,0t-1.22,0v-.34l.44-.05c.17,0,.28-.05.32-.11a1.52,1.52,0,0,0,.07-.56q0-.74,0-2,0-.9,0-1.39a.37.37,0,0,0-.09-.26.56.56,0,0,0-.36-.08h-.39v-.34a8.6,8.6,0,0,0,.92-.19A6.39,6.39,0,0,0,150.27,46Zm-.41-2.57a.52.52,0,0,1,.41.19.68.68,0,0,1,.17.47.68.68,0,0,1-.17.46.52.52,0,0,1-.41.19.53.53,0,0,1-.41-.19.68.68,0,0,1-.17-.46.69.69,0,0,1,.17-.47A.53.53,0,0,1,149.86,43.43Z"/><path class="cls-1" d="M155.11,46.48v-.34q.53,0,.95,0t1,0v.34h-.16a.55.55,0,0,0-.23.05.38.38,0,0,0-.13.1,8.28,8.28,0,0,0-.37.81q-.58,1.35-.89,2.14t-.78,2.11H154q-.68-1.91-1.39-3.72-.26-.66-.32-.85a1.22,1.22,0,0,0-.26-.51.5.5,0,0,0-.36-.14h-.17v-.34q.76,0,1.26,0t1.18,0v.34h-.23a.93.93,0,0,0-.44.08.19.19,0,0,0-.09.17,1.75,1.75,0,0,0,.09.4q.09.3,1.25,3.52l.92-2.51a11.17,11.17,0,0,0,.39-1.21.71.71,0,0,0,0-.16.19.19,0,0,0-.07-.16.85.85,0,0,0-.34-.09Z"/><path class="cls-1" d="M159.28,46l.12.09q0,.44,0,1,0,1.7,0,2.5t0,1.29a.49.49,0,0,0,.1.29.69.69,0,0,0,.37.12l.35.05v.34q-.75,0-1.37,0t-1.22,0v-.34l.44-.05c.17,0,.28-.05.32-.11a1.52,1.52,0,0,0,.07-.56q0-.74,0-2,0-.9,0-1.39a.37.37,0,0,0-.09-.26.56.56,0,0,0-.36-.08h-.39v-.34a8.6,8.6,0,0,0,.92-.19A6.39,6.39,0,0,0,159.28,46Zm-.41-2.57a.52.52,0,0,1,.41.19.68.68,0,0,1,.17.47.68.68,0,0,1-.17.46.52.52,0,0,1-.41.19.53.53,0,0,1-.41-.19.68.68,0,0,1-.17-.46.69.69,0,0,1,.17-.47A.53.53,0,0,1,158.87,43.43Z"/><path class="cls-1" d="M162.26,47.14l.78-.78a.91.91,0,0,1,.29-.2A1.92,1.92,0,0,1,164,46a1.75,1.75,0,0,1,1,.25,1.45,1.45,0,0,1,.58.66,3.4,3.4,0,0,1,.17,1.26l0,1.83a4.22,4.22,0,0,0,.07,1.09.39.39,0,0,0,.38.19h.37v.34q-.55,0-.95,0c-.26,0-.54,0-.84,0q.1-1.13.1-3.06a3.53,3.53,0,0,0-.12-1.1,1.08,1.08,0,0,0-.41-.52,1.18,1.18,0,0,0-.69-.2,1.3,1.3,0,0,0-.85.28,1.17,1.17,0,0,0-.43.63,7.68,7.68,0,0,0-.05,1.19q0,1.06,0,2a.39.39,0,0,0,.5.48h.37v.34q-.87,0-1.39,0t-1.24,0v-.34h.37q.38,0,.44-.2a20.4,20.4,0,0,0,.06-2.41q0-1,0-1.55a.38.38,0,0,0-.08-.26.7.7,0,0,0-.41-.07h-.37v-.34a5.58,5.58,0,0,0,.79-.16,5.2,5.2,0,0,0,.79-.3l.09,0c.05,0,.08,0,.08.13v1Z"/><path class="cls-1" d="M171.13,47.11a2.12,2.12,0,0,1,.12.61,2,2,0,0,1-.28,1,2.1,2.1,0,0,1-.79.77,2.2,2.2,0,0,1-1.11.29h-.24a2.36,2.36,0,0,0-.43.42.5.5,0,0,0-.09.27.39.39,0,0,0,.2.35,1.74,1.74,0,0,0,.82.13l.68,0,.92,0a1.09,1.09,0,0,1,.62.15,1.14,1.14,0,0,1,.37.52,2.14,2.14,0,0,1,.15.84,2.43,2.43,0,0,1-.35,1.25,2.55,2.55,0,0,1-1,1,3.18,3.18,0,0,1-1.54.36,2.33,2.33,0,0,1-1.63-.52,1.66,1.66,0,0,1-.57-1.28,1.8,1.8,0,0,1,.3-1,6,6,0,0,0,.9-.58,1.56,1.56,0,0,1-.54-.29.47.47,0,0,1-.12-.33,1.07,1.07,0,0,1,.12-.48,1.13,1.13,0,0,1,.34-.35l.5-.4a1.78,1.78,0,0,1-.89-.5,1.66,1.66,0,0,1-.36-1.1,2.18,2.18,0,0,1,.27-1.07,1.91,1.91,0,0,1,.79-.76,2.71,2.71,0,0,1,1.28-.36,1.88,1.88,0,0,1,.69.12,2,2,0,0,1,.6.39h.43a7.9,7.9,0,0,0,1-.05l.06.12a4.13,4.13,0,0,0-.27.53Zm-2.18,4.62a.94.94,0,0,0-.5.09,1.72,1.72,0,0,0-.52.51,1.68,1.68,0,0,0-.15.76,1.41,1.41,0,0,0,.42,1,1.57,1.57,0,0,0,1.16.41,2,2,0,0,0,1-.24,1.76,1.76,0,0,0,.91-1.51,1.29,1.29,0,0,0-.17-.66.77.77,0,0,0-.4-.37,2.14,2.14,0,0,0-.54,0Zm1.41-3.7a1.92,1.92,0,0,0-.33-1.17,1,1,0,0,0-1.63-.08,1.52,1.52,0,0,0-.3,1,2,2,0,0,0,.33,1.22,1,1,0,0,0,1.62.07A1.58,1.58,0,0,0,170.36,48Z"/><path class="cls-1" d="M178.79,43.91q-.06.87-.06,1.84v3.31a11.64,11.64,0,0,0,.08,2q.08.19.59.19h.39v.37q-.91,0-1.54,0t-1.53,0v-.37h.43a.66.66,0,0,0,.44-.1.65.65,0,0,0,.13-.4q.05-.68.05-1.76V45.71q0-1,0-1.8h-.52a6.75,6.75,0,0,0-1.4.07c-.09,0-.14.22-.17.52l-.07.78h-.32v-.69q0-.42-.06-1.2l3.26,0,2.84,0q-.1,1-.11,1.89h-.32l-.05-.76a1.2,1.2,0,0,0-.09-.47.36.36,0,0,0-.25-.09q-.57,0-1.29,0Z"/><path class="cls-1" d="M181.84,48.86a3.16,3.16,0,0,1,.33-1.45,2.48,2.48,0,0,1,.92-1,2.52,2.52,0,0,1,1.35-.37,2.24,2.24,0,0,1,1.75.73,2.81,2.81,0,0,1,.66,2A3.07,3.07,0,0,1,186,51a2.51,2.51,0,0,1-1.84.76,2.07,2.07,0,0,1-1.67-.78A3.24,3.24,0,0,1,181.84,48.86Zm1-.41a4.48,4.48,0,0,0,.43,2.05,1.36,1.36,0,0,0,1.25.85,1.18,1.18,0,0,0,1-.53,2.79,2.79,0,0,0,.38-1.62,4.61,4.61,0,0,0-.23-1.52,2,2,0,0,0-.6-.94,1.3,1.3,0,0,0-.83-.29,1.23,1.23,0,0,0-.73.23,1.36,1.36,0,0,0-.48.62A3.08,3.08,0,0,0,182.81,48.45Z"/><path class="cls-1" d="M191.82,47.11a2.12,2.12,0,0,1,.12.61,2,2,0,0,1-.28,1,2.1,2.1,0,0,1-.79.77,2.2,2.2,0,0,1-1.11.29h-.24a2.36,2.36,0,0,0-.43.42.5.5,0,0,0-.09.27.39.39,0,0,0,.2.35A1.74,1.74,0,0,0,190,51l.68,0,.92,0a1.09,1.09,0,0,1,.62.15,1.14,1.14,0,0,1,.37.52,2.14,2.14,0,0,1,.15.84,2.43,2.43,0,0,1-.35,1.25,2.55,2.55,0,0,1-1,1,3.18,3.18,0,0,1-1.54.36,2.33,2.33,0,0,1-1.63-.52,1.66,1.66,0,0,1-.57-1.28,1.8,1.8,0,0,1,.3-1,6,6,0,0,0,.9-.58,1.56,1.56,0,0,1-.54-.29.47.47,0,0,1-.12-.33,1.07,1.07,0,0,1,.12-.48,1.13,1.13,0,0,1,.34-.35l.5-.4a1.78,1.78,0,0,1-.89-.5,1.66,1.66,0,0,1-.36-1.1,2.18,2.18,0,0,1,.27-1.07,1.91,1.91,0,0,1,.79-.76,2.71,2.71,0,0,1,1.28-.36,1.88,1.88,0,0,1,.69.12,2,2,0,0,1,.6.39H192a7.9,7.9,0,0,0,1-.05l.06.12a4.13,4.13,0,0,0-.27.53Zm-2.18,4.62a.94.94,0,0,0-.5.09,1.72,1.72,0,0,0-.52.51,1.68,1.68,0,0,0-.15.76,1.41,1.41,0,0,0,.42,1,1.57,1.57,0,0,0,1.16.41,2,2,0,0,0,1-.24,1.76,1.76,0,0,0,.91-1.51,1.29,1.29,0,0,0-.17-.66.77.77,0,0,0-.4-.37,2.14,2.14,0,0,0-.54,0ZM191,48a1.92,1.92,0,0,0-.33-1.17,1,1,0,0,0-1.63-.08,1.52,1.52,0,0,0-.3,1,2,2,0,0,0,.33,1.22,1,1,0,0,0,1.62.07A1.58,1.58,0,0,0,191,48Z"/><path class="cls-1" d="M194.35,48.84a2.76,2.76,0,0,0,.52,1.74,1.6,1.6,0,0,0,1.29.59,2,2,0,0,0,.71-.13,2.76,2.76,0,0,0,.7-.4l.09.09-.16.49a3.48,3.48,0,0,1-.88.42,3.14,3.14,0,0,1-.93.14A2.11,2.11,0,0,1,194,51a3,3,0,0,1-.64-2,3.72,3.72,0,0,1,.36-1.69,2.31,2.31,0,0,1,.87-.87,2.33,2.33,0,0,1,1.24-.4,1.83,1.83,0,0,1,1.44.6,2.48,2.48,0,0,1,.53,1.69v.34a3.78,3.78,0,0,1-.65.12q-.55,0-1.52,0Zm0-.44q.8,0,1.76,0a6.65,6.65,0,0,0,.75,0v-.32a2.64,2.64,0,0,0-.18-1,1,1,0,0,0-.4-.47,1.15,1.15,0,0,0-.65-.19,1.08,1.08,0,0,0-.92.48A2.59,2.59,0,0,0,194.36,48.4Z"/><path class="cls-1" d="M200,47.08v2.28a7.5,7.5,0,0,0,.05,1.14.68.68,0,0,0,.21.39.58.58,0,0,0,.4.14A.67.67,0,0,0,201,51a1.07,1.07,0,0,0,.28-.2l.15.2-.5.66-.32.1a1.38,1.38,0,0,1-.3,0,1.26,1.26,0,0,1-.65-.15.93.93,0,0,1-.38-.4,1.81,1.81,0,0,1-.12-.75l0-1.12V47.13q-.4,0-.82,0v-.25q.44-.19.82-.4,0-.83,0-1.8a7.58,7.58,0,0,0,.86-.46l.13.12q0,.45-.09,2.14l1,0,.41,0-.06.6H200Z"/><path class="cls-1" d="M203.42,47.13l.67-.67a1.38,1.38,0,0,1,.46-.34,1.49,1.49,0,0,1,.55-.09,1.85,1.85,0,0,1,1,.26,1.38,1.38,0,0,1,.58.66,4.08,4.08,0,0,1,.16,1.37l0,1.72a7.88,7.88,0,0,0,0,.92.34.34,0,0,0,.09.21.53.53,0,0,0,.3.09l.39,0v.34q-.5,0-1,0a8,8,0,0,0-.81,0q.09-1.46.09-2.87a5.11,5.11,0,0,0-.11-1.28,1,1,0,0,0-.38-.53,1.14,1.14,0,0,0-.69-.2A1.38,1.38,0,0,0,204,47a1.25,1.25,0,0,0-.48.53,3.33,3.33,0,0,0-.09,1v1a9.65,9.65,0,0,0,.06,1.53c0,.1.17.16.41.18l.45,0v.34q-.8,0-1.29,0t-1.33,0v-.34l.32,0a1.05,1.05,0,0,0,.38-.1.36.36,0,0,0,.1-.25q0-.31,0-1.4V45.59a9.9,9.9,0,0,0-.07-1.74c0-.09-.17-.13-.42-.13h-.35v-.36a6,6,0,0,0,1.27-.26l.42-.16c.05,0,.08,0,.08.12l0,.24,0,1q0,.79,0,1.22Z"/><path class="cls-1" d="M209,48.84a2.76,2.76,0,0,0,.52,1.74,1.6,1.6,0,0,0,1.29.59,2,2,0,0,0,.71-.13,2.76,2.76,0,0,0,.7-.4l.09.09-.16.49a3.48,3.48,0,0,1-.88.42,3.14,3.14,0,0,1-.93.14,2.11,2.11,0,0,1-1.68-.75,3,3,0,0,1-.64-2,3.72,3.72,0,0,1,.36-1.69,2.31,2.31,0,0,1,.87-.87,2.33,2.33,0,0,1,1.24-.4,1.83,1.83,0,0,1,1.44.6,2.48,2.48,0,0,1,.53,1.69v.34a3.78,3.78,0,0,1-.65.12q-.55,0-1.52,0Zm0-.44q.8,0,1.76,0a6.65,6.65,0,0,0,.75,0v-.32a2.64,2.64,0,0,0-.18-1,1,1,0,0,0-.4-.47,1.15,1.15,0,0,0-.65-.19,1.08,1.08,0,0,0-.92.48A2.59,2.59,0,0,0,209,48.4Z"/><path class="cls-1" d="M214.68,47.35a4.7,4.7,0,0,0,.45-.58,2,2,0,0,1,.54-.58,1,1,0,0,1,.52-.16,1,1,0,0,1,.43.08.11.11,0,0,1,.07.11v.06a8.89,8.89,0,0,0-.09,1.32h-.23a1,1,0,0,0-.28-.42.62.62,0,0,0-.39-.12.82.82,0,0,0-.56.23,1.15,1.15,0,0,0-.35.65,9.84,9.84,0,0,0-.09,1.64,13.51,13.51,0,0,0,.06,1.36c0,.14,0,.22.1.26a1.1,1.1,0,0,0,.58.12h.31v.34q-.79,0-1.49,0t-1.35,0v-.34l.49,0a.49.49,0,0,0,.33-.11,1.35,1.35,0,0,0,.09-.56q0-.84,0-2a7.19,7.19,0,0,0-.1-1.64q-.07-.16-.42-.16h-.43v-.34a7.3,7.3,0,0,0,.89-.17,3.36,3.36,0,0,0,.69-.26.26.26,0,0,1,.12,0,.08.08,0,0,1,.08,0,.37.37,0,0,1,0,.16Z"/><path class="cls-1" d="M217.83,46.77l-.15-2.6c0-.16,0-.28,0-.38a.66.66,0,0,1,.1-.39.29.29,0,0,1,.49,0,.68.68,0,0,1,.1.4c0,.09,0,.21,0,.37l-.15,2.6c0,.17-.07.25-.19.25S217.84,46.94,217.83,46.77Zm1.68,0-.15-2.6c0-.16,0-.28,0-.38a.65.65,0,0,1,.1-.39.3.3,0,0,1,.24-.14.3.3,0,0,1,.25.13.66.66,0,0,1,.1.4c0,.09,0,.21,0,.37l-.15,2.6c0,.17-.07.25-.19.25S219.51,46.94,219.51,46.77Z"/><path class="cls-1" d="M227.59,50.82l.14.14-.21.37a2.9,2.9,0,0,1-.72.32,2.7,2.7,0,0,1-.76.11,2.4,2.4,0,0,1-1.28-.32,2.13,2.13,0,0,1-.81-.94,3.43,3.43,0,0,1-.29-1.46,3.52,3.52,0,0,1,.22-1.3,2,2,0,0,1,.62-.87,6.06,6.06,0,0,1,1-.62,2,2,0,0,1,.94-.22,2.78,2.78,0,0,1,.68.07,2.51,2.51,0,0,1,.61.26,10.16,10.16,0,0,0-.14,1.54h-.32v-.29a1.06,1.06,0,0,0-.1-.53,1,1,0,0,0-.43-.31,1.8,1.8,0,0,0-.74-.15,1.28,1.28,0,0,0-1.07.48,2.29,2.29,0,0,0-.38,1.43,3.18,3.18,0,0,0,.56,2,1.54,1.54,0,0,0,1.29.67,2.16,2.16,0,0,0,.61-.09A2.77,2.77,0,0,0,227.59,50.82Z"/><path class="cls-1" d="M228.47,48.86a3.16,3.16,0,0,1,.33-1.45,2.48,2.48,0,0,1,.92-1,2.52,2.52,0,0,1,1.35-.37,2.24,2.24,0,0,1,1.75.73,2.81,2.81,0,0,1,.66,2,3.07,3.07,0,0,1-.86,2.29,2.51,2.51,0,0,1-1.84.76,2.07,2.07,0,0,1-1.67-.78A3.24,3.24,0,0,1,228.47,48.86Zm1-.41a4.48,4.48,0,0,0,.43,2.05,1.36,1.36,0,0,0,1.25.85,1.18,1.18,0,0,0,1-.53,2.79,2.79,0,0,0,.38-1.62,4.61,4.61,0,0,0-.23-1.52,2,2,0,0,0-.6-.94,1.3,1.3,0,0,0-.83-.29,1.23,1.23,0,0,0-.73.23,1.36,1.36,0,0,0-.48.62A3.08,3.08,0,0,0,229.44,48.45Z"/><path class="cls-1" d="M235.71,47.14l.78-.78a.91.91,0,0,1,.29-.2,1.92,1.92,0,0,1,.68-.13,1.75,1.75,0,0,1,1,.25,1.45,1.45,0,0,1,.58.66,3.4,3.4,0,0,1,.17,1.26l0,1.83a4.22,4.22,0,0,0,.07,1.09.39.39,0,0,0,.38.19H240v.34q-.55,0-.95,0c-.26,0-.54,0-.84,0q.1-1.13.1-3.06a3.53,3.53,0,0,0-.12-1.1,1.08,1.08,0,0,0-.41-.52,1.18,1.18,0,0,0-.69-.2,1.3,1.3,0,0,0-.85.28,1.17,1.17,0,0,0-.43.63,7.68,7.68,0,0,0-.05,1.19q0,1.06,0,2a.39.39,0,0,0,.5.48h.37v.34q-.87,0-1.39,0t-1.24,0v-.34h.37q.38,0,.44-.2a20.4,20.4,0,0,0,.06-2.41q0-1,0-1.55a.38.38,0,0,0-.08-.26.7.7,0,0,0-.41-.07H234v-.34a5.58,5.58,0,0,0,.79-.16,5.2,5.2,0,0,0,.79-.3l.09,0c.05,0,.08,0,.08.13v1Z"/><path class="cls-1" d="M244.15,50.82l.14.14-.21.37a2.9,2.9,0,0,1-.72.32,2.7,2.7,0,0,1-.76.11,2.4,2.4,0,0,1-1.28-.32,2.13,2.13,0,0,1-.81-.94,3.43,3.43,0,0,1-.29-1.46,3.52,3.52,0,0,1,.22-1.3,2,2,0,0,1,.62-.87,6.06,6.06,0,0,1,1-.62A2,2,0,0,1,243,46a2.78,2.78,0,0,1,.68.07,2.51,2.51,0,0,1,.61.26,10.16,10.16,0,0,0-.14,1.54h-.32v-.29a1.06,1.06,0,0,0-.1-.53,1,1,0,0,0-.43-.31,1.8,1.8,0,0,0-.74-.15,1.28,1.28,0,0,0-1.07.48,2.29,2.29,0,0,0-.38,1.43,3.18,3.18,0,0,0,.56,2,1.54,1.54,0,0,0,1.29.67,2.16,2.16,0,0,0,.61-.09A2.77,2.77,0,0,0,244.15,50.82Z"/><path class="cls-1" d="M245.93,48.84a2.76,2.76,0,0,0,.52,1.74,1.6,1.6,0,0,0,1.29.59,2,2,0,0,0,.71-.13,2.76,2.76,0,0,0,.7-.4l.09.09-.16.49a3.48,3.48,0,0,1-.88.42,3.14,3.14,0,0,1-.93.14,2.11,2.11,0,0,1-1.68-.75,3,3,0,0,1-.64-2,3.72,3.72,0,0,1,.36-1.69,2.31,2.31,0,0,1,.87-.87,2.33,2.33,0,0,1,1.24-.4,1.83,1.83,0,0,1,1.44.6,2.48,2.48,0,0,1,.53,1.69v.34a3.78,3.78,0,0,1-.65.12q-.55,0-1.52,0Zm0-.44q.8,0,1.76,0a6.65,6.65,0,0,0,.75,0v-.32a2.64,2.64,0,0,0-.18-1,1,1,0,0,0-.4-.47,1.15,1.15,0,0,0-.65-.19,1.08,1.08,0,0,0-.92.48A2.59,2.59,0,0,0,245.94,48.4Z"/><path class="cls-1" d="M251.69,47.2l.72-.72a1.43,1.43,0,0,1,.46-.34,2.08,2.08,0,0,1,.71-.11,1.88,1.88,0,0,1,1.48.64,2.4,2.4,0,0,1,.56,1.65,3.91,3.91,0,0,1-.13,1,3.14,3.14,0,0,1-.31.8,2.26,2.26,0,0,1-.42.52l-.63.46-.21.17a2.83,2.83,0,0,1-.63.4,1.46,1.46,0,0,1-.55.1,1.8,1.8,0,0,1-.51-.08,3.17,3.17,0,0,1-.56-.23v.82q0,1.26,0,1.78a.47.47,0,0,0,.13.33.77.77,0,0,0,.48.1h.28v.32l-1.43,0c-.33,0-.76,0-1.27,0v-.32h.38q.4,0,.47-.19a13.54,13.54,0,0,0,.07-2V48.68q0-.93,0-1.43a.53.53,0,0,0-.1-.32.58.58,0,0,0-.37-.08h-.4v-.36a6.59,6.59,0,0,0,1.41-.33l.31-.14c.05,0,.08.05.08.16l0,.62Zm0,3.2a2.16,2.16,0,0,0,.66.59,1.49,1.49,0,0,0,.71.17,1.38,1.38,0,0,0,1.24-.69,3,3,0,0,0,.43-1.64,2.74,2.74,0,0,0-.2-1.09A1.62,1.62,0,0,0,254,47a1.42,1.42,0,0,0-.82-.26,1.39,1.39,0,0,0-.6.14,1.61,1.61,0,0,0-.52.39,1.25,1.25,0,0,0-.28.46,4.18,4.18,0,0,0,0,.83Z"/><path class="cls-1" d="M257.94,47.08v2.28A7.5,7.5,0,0,0,258,50.5a.68.68,0,0,0,.21.39.58.58,0,0,0,.4.14.67.67,0,0,0,.29-.07,1.07,1.07,0,0,0,.28-.2l.15.2-.5.66-.32.1a1.38,1.38,0,0,1-.3,0,1.26,1.26,0,0,1-.65-.15.93.93,0,0,1-.38-.4,1.81,1.81,0,0,1-.12-.75l0-1.12V47.13q-.4,0-.82,0v-.25q.44-.19.82-.4,0-.83,0-1.8a7.58,7.58,0,0,0,.86-.46l.13.12q0,.45-.09,2.14l1,0,.41,0-.06.6h-1.38Z"/><path class="cls-1" d="M260.78,50.4a.55.55,0,0,1,.42.2.75.75,0,0,1,0,1,.54.54,0,0,1-.42.2.55.55,0,0,1-.43-.2.75.75,0,0,1,0-1A.55.55,0,0,1,260.78,50.4Z"/></g></g></svg>